<svg xmlns="http://www.w3.org/2000/svg" width="96" height="96" viewBox="0 0 96 96"><g><g><g><path fill="#fff" d="M0 16C0 8 8 0 16 0h64c8 0 16 8 16 16v64c0 8-8 16-16 16H16C8 96 0 88 0 80z"/></g><g><path fill="#ff4545" d="M36 20c0-2 2-4 4-4h16c2 0 4 2 4 4v16H36z"/></g><g><path fill="#d91616" d="M36 60h24v16c0 2-2 4-4 4H40c-2 0-4-2-4-4z"/></g><g><path fill="#cc1414" d="M36 60V36h24v24z"/></g><g><path fill="#ff1a1a" d="M36 36v24H20c-2 0-4-2-4-4V40c0-2 2-4 4-4z"/></g><g><path fill="#ff1a1a" d="M76 36c2 0 4 2 4 4v16c0 2-2 4-4 4H60V36z"/></g></g></g></svg>