<svg xmlns="http://www.w3.org/2000/svg" width="96" height="96" viewBox="0 0 96 96"><g><g><g><path fill="#502aa0" d="M0 16C0 8 8 0 16 0h64c8 0 16 8 16 16v64c0 8-8 16-16 16H16C8 96 0 88 0 80z"/></g><g><path fill="#ffe555" d="M48 34c0-7.732 6.268-14 14-14s14 6.268 14 14-6.268 14-14 14-14-6.268-14-14z"/></g><g><path fill="#fff" d="M16 48c0-13.255 10.745-24 24-24s24 10.745 24 24-10.745 24-24 24-24-10.745-24-24z"/></g><g><path fill="#fff" d="M40 40h24c8 0 16 8 16 16s-8 16-16 16H40z"/></g></g></g></svg>