<svg xmlns="http://www.w3.org/2000/svg" width="31" height="24" viewBox="0 0 31 24"><g><g><g opacity="1"><path fill="#fff" d="M6.68 22.652a.762.762 0 0 0 .776.813.767.767 0 1 0-.77-.813zm2.06 1.259h-.552v-.308a.964.964 0 0 1-.796.371 1.327 1.327 0 1 1 0-2.654.964.964 0 0 1 .796.371v-.308h.553zm18.644-1.259a.762.762 0 0 0 .77.813.767.767 0 1 0-.77-.813zm2.042 1.259h-.531v-.308a.964.964 0 0 1-.796.371 1.327 1.327 0 1 1 0-2.654.964.964 0 0 1 .796.371v-1.327h.53zm-13.844-2.098a.653.653 0 0 0-.675.616h1.328a.63.63 0 0 0-.643-.616zm.018-.488c.712 0 1.205.53 1.205 1.327v.213h-1.884c.043.378.38.654.759.62.269-.003.528-.096.738-.265l.265.41a1.542 1.542 0 0 1-1.054.344 1.327 1.327 0 1 1-.037-2.654zm6.863 1.897c.146.154.35.24.562.237a.767.767 0 1 0-.562-.237zm1.847.689h-.552v-.308a.964.964 0 0 1-.796.371 1.327 1.327 0 0 1 0-2.654.964.964 0 0 1 .796.371v-.308h.552zm-5.171-1.275a1.282 1.282 0 0 1 1.354-1.327c.331-.017.657.091.913.303l-.265.446a1.115 1.115 0 0 0-.664-.229.815.815 0 0 0 0 1.625c.24-.003.473-.083.664-.228l.265.446c-.256.211-.582.32-.913.302a1.282 1.282 0 0 1-1.354-1.327zm7.104-1.327c.134 0 .267.024.393.069l-.17.531a.9.9 0 0 0-.345-.064c-.35 0-.531.234-.531.653v1.423h-.552v-2.538h.547v.308a.749.749 0 0 1 .669-.371zm-15.023.722a1.635 1.635 0 0 0-.796-.218c-.303 0-.484.128-.484.298 0 .17.192.217.43.25l.266.036c.552.08.887.277.887.76s-.425.828-1.158.828a1.832 1.832 0 0 1-1.099-.33l.266-.43c.243.181.54.275.844.266.377 0 .579-.111.579-.308 0-.143-.144-.223-.446-.265l-.266-.037c-.568-.08-.876-.335-.876-.749 0-.504.42-.812 1.062-.812.363-.013.723.08 1.035.265zm7.354-.722c.133 0 .266.024.392.069l-.17.531a.9.9 0 0 0-.345-.064c-.35 0-.53.234-.53.653v1.423h-.553v-2.538h.547v.308a.749.749 0 0 1 .67-.371zm-4.694.579h-.903v1.157c0 .255.101.425.367.425a1.02 1.02 0 0 0 .488-.143l.16.472c-.207.13-.447.197-.69.197-.654 0-.882-.35-.882-.94v-1.168h-.515v-.505h.504v-.77h.558v.77h.908zm-8.81 2.044V22.52c0-.43-.181-.67-.558-.67a.597.597 0 0 0-.622.675v1.407h-.557V22.52c0-.43-.186-.67-.552-.67a.595.595 0 0 0-.621.675v1.396h-.558v-2.538h.552v.314a.839.839 0 0 1 .744-.377.932.932 0 0 1 .838.451.982.982 0 0 1 .892-.451.945.945 0 0 1 .999 1.008v1.593z"/></g><g opacity="1"><g><path fill="#ff5f00" d="M11.281 17.072V2.044h8.362v15.028z"/></g><g><path fill="#eb001b" d="M11.812 9.56a9.541 9.541 0 0 1 3.65-7.516 9.557 9.557 0 1 0 0 15.028 9.541 9.541 0 0 1-3.65-7.513z"/></g><g><path fill="#f79e1b" d="M30.926 9.56a9.557 9.557 0 0 1-15.464 7.512 9.557 9.557 0 0 0 0-15.028 9.557 9.557 0 0 1 15.464 7.513z"/></g></g></g></g></svg>