<svg xmlns="http://www.w3.org/2000/svg" width="43" height="16" viewBox="0 0 43 16"><g><g><g opacity="1"><g><path fill="#fff" d="M42.388 9.143h-1.635V9.14H16.51l-.618.875-.611-.875H8.308v6.826h6.946l.604-.888.625.888h4.348v-1.473h-.046c.54 0 1.032-.097 1.466-.259v1.732h3.033v-.993l.762.993H39.2c.38 0 .734-.064 1.053-.18.006-.001.011-.006.019-.009.093-.034.177-.083.264-.126.072-.037.15-.064.217-.105v-.005c.705-.444 1.134-1.21 1.134-2.153 0-.68-.226-1.253-.624-1.671z"/></g><g><path fill="#fff" d="M20.325 5.805l.763.993h4.21v-.496a2.825 2.825 0 0 0 .687.322c.147.048.297.085.446.111.242.045.484.063.714.063h2.52l.367-.98h.698l.374.98h4.223V5.785l.638 1.013h2.933V-.029h-3.13v1.092L35.07-.03h-2.73v1.38l-.61-1.38h-4.513c-.216 0-.429.016-.633.048a3.45 3.45 0 0 0-.882.26c-.141.065-.276.14-.405.226V-.03H10.571l-.401 1.191-.408-1.19H6.335v1.395L5.717-.029H2.922L0 6.798h3.652l.368-.98h.697l.375.98h15.233z"/></g></g><g opacity="1"><g><path fill="#006fcf" d="M39.352 12.086h-1.065c-.263 0-.447-.17-.447-.44 0-.277.184-.46.447-.46h1.999l.408-.935H38.32c-.994 0-1.585.605-1.585 1.434 0 .849.559 1.335 1.433 1.335h1.06c.262 0 .453.171.453.448 0 .282-.19.466-.454.466h-2.36v.921h2.327c.994 0 1.586-.605 1.586-1.467 0-.822-.533-1.302-1.428-1.302z"/></g><g><path fill="#006fcf" d="M18.266 10.251h-1.341l-1.132 1.46-1.124-1.46h-1.382l1.842 2.302-1.835 2.302h1.341l1.132-1.48 1.131 1.48h1.381l-1.848-2.322z"/></g><g><path fill="#006fcf" d="M9.38 14.855h3.684v-.927h-2.578V13h2.519v-.921h-2.52v-.895h2.579v-.934H9.38z"/></g><g><path fill="#006fcf" d="M20.95 12.362h-1.322v-1.13h1.321c.389 0 .586.25.586.564 0 .31-.197.566-.586.566zm.105-2.111h-2.532v4.604h1.105v-1.52h1.387c1.007 0 1.631-.657 1.631-1.545 0-.914-.611-1.539-1.59-1.539z"/></g><g><path fill="#006fcf" d="M24.35 12.33v-1.138h1.296c.394 0 .605.256.605.572 0 .316-.21.565-.605.565zm2.986-.619c0-.861-.611-1.46-1.592-1.46h-2.499v4.604h1.105v-1.657h.52l1.374 1.657h1.375l-1.532-1.697c.783-.145 1.249-.71 1.249-1.447z"/></g><g><path fill="#006fcf" d="M28.132 14.855h3.683v-.927h-2.578V13h2.519v-.921h-2.519v-.895h2.578v-.934h-3.683z"/></g><g><path fill="#006fcf" d="M34.972 12.086h-1.065c-.263 0-.448-.17-.448-.44 0-.277.185-.46.448-.46h2l.407-.935h-2.375c-.993 0-1.585.605-1.585 1.434 0 .849.56 1.335 1.435 1.335h1.058c.263 0 .454.171.454.448 0 .282-.19.466-.454.466h-2.36v.921h2.327c.994 0 1.585-.605 1.585-1.467 0-.822-.532-1.302-1.427-1.302z"/></g><g><path fill="#006fcf" d="M3.612 3.819l.401-1.02.336-.861.336.861.407 1.02zm.053-2.737L1.692 5.687h1.177l.388-.987h2.19l.395.987h1.243L5.118 1.082z"/></g><g><path fill="#006fcf" d="M17.576 4.746h-2.579v-.914h2.52v-.92h-2.52v-.895h2.579v-.935h-3.684v4.605h3.684z"/></g><g><path fill="#006fcf" d="M27.033 5.687h.06l.453-.98h-.335c-.756 0-1.204-.474-1.204-1.29v-.065c0-.73.401-1.276 1.19-1.276h1.198v-.994h-1.29c-1.42 0-2.196.955-2.196 2.263v.08c0 1.367.796 2.255 2.124 2.262z"/></g><g><path fill="#006fcf" d="M19.49 3.16V2.024h1.295c.395 0 .605.256.605.573 0 .315-.21.565-.605.565zm2.986-.617c0-.862-.612-1.46-1.593-1.46h-2.499v4.604h1.105V4.029h.52l1.375 1.658h1.374L21.226 3.99c.783-.145 1.25-.71 1.25-1.447z"/></g><g><path fill="#006fcf" d="M37.702 1.082h-1.08v2.664l.014.342-.204-.342-1.724-2.664h-1.354v4.605h1.079V2.93l-.014-.382.23.382 1.763 2.756h1.29z"/></g><g><path fill="#006fcf" d="M29.624 3.819l.402-1.02.336-.861.334.861.409 1.02zm1.507-2.737h-1.454l-1.972 4.605h1.176l.389-.987h2.19l.394.987h1.243z"/></g><g><path fill="#006fcf" d="M24.212 3.66V1.082h-1.105v4.605h1.105z"/></g><g><path fill="#006fcf" d="M9.663 5.687h1l1.276-4.36-.026 1.21v3.15h1.072V1.082h-1.947l-.875 3.263-.881-3.263h-1.94v4.605h1.072V2.543L8.387 1.3z"/></g></g></g></g></svg>