<svg xmlns="http://www.w3.org/2000/svg" width="96" height="96" viewBox="0 0 96 96"><g><g><g><path fill="#ffbc03" d="M0 16C0 8 8 0 16 0h64c8 0 16 8 16 16v64c0 8-8 16-16 16H16C8 96 0 88 0 80z"/></g><g><path fill="#fff" d="M8 16c0-4 4-8 8-8h64c4 0 8 4 8 8v64c0 4-4 8-8 8H16c-4 0-8-4-8-8z"/></g><g><path fill="#ffd800" d="M16 96C7.165 96 .001 88.837.001 80.001V16c0-8.836 7.164-15.999 16-15.999H32c8 0 12 0 16 7.999l7.999 16h32.002a8 8 0 0 1 8 7.999v48.002C96 88.837 88.837 96 80 96z"/></g></g></g></svg>