<svg height="32px" version="1.1" xmlns="http://www.w3.org/2000/svg" xmlns:xlink="http://www.w3.org/1999/xlink" style="" width="30px" viewBox="0 0 -92 32">

<title>Group</title>
<desc>Created with Sketch.</desc>
<g id="Page-1" stroke="#" stroke-width="1" fill="none" fill-rule="evenodd">
<g id="Homepage" transform="translate(-230.000000, -75.000000)">
<g id="Group" transform="translate(130.000000, 75.000000)">
<path d="M99.9473684,1 L99.9473684,31 L129.947368,31 L129.947368,1 L99.9473684,1 Z" id="Rectangle" stroke="#000" stroke-width="2" class="RVIwHlKR_0" fill="#fff265"></path>
<path id="MIND-B-X" fill="#fff" class="RVIwHlKR_1"></path>
<path id="Path" stroke="#000" stroke-width="2" class="RVIwHlKR_2" d="M118.539553,15.138161 C118.539553,15.138161 111.47642,12.8470409 111.040424,15.9867239 C111.040424,15.9867239 110.691628,18.277844 115.749179,18.277844 C115.749179,18.277844 121.329926,18.5324128 121.329926,15.138161 C121.329926,15.138161 121.591524,11.4893402 115.051586,11.4893402 C115.051586,11.4893402 107.726856,11.2347713 108.162852,17.0049995 C108.162852,17.0049995 108.162852,20.9083892 115.138785,21.2478144 C115.138785,21.2478144 123.858702,21.5023833 124.207499,15.138161 C124.207499,15.138161 124.643494,8.94365126 115.051586,8.43451348 C115.051586,8.43451348 107.814055,7.84051939 105.285279,14.5441669 C102.756503,21.2478144 111.696729,25.0299553 115.749179,24.3406273"></path>
</g>
</g>
</g>
</svg>