<svg xmlns="http://www.w3.org/2000/svg" width="4" height="18" viewBox="0 0 4 18"><defs><clipPath id="xkcza"><path fill="#fff" d="M4 16a2 2 0 1 1-4 0 2 2 0 0 1 4 0z"/></clipPath><clipPath id="xkczb"><path fill="#fff" d="M4 9a2 2 0 1 1-4 0 2 2 0 0 1 4 0z"/></clipPath><clipPath id="xkczc"><path fill="#fff" d="M4 2a2 2 0 1 1-4 0 2 2 0 0 1 4 0z"/></clipPath></defs><g><g><g opacity="1"/><g opacity="1"><path fill="none" stroke="#5e636b" stroke-miterlimit="20" stroke-width="4" d="M4 16a2 2 0 1 1-4 0 2 2 0 0 1 4 0z" clip-path="url(&quot;#xkcza&quot;)"/></g><g opacity="1"><path fill="none" stroke="#5e636b" stroke-miterlimit="20" stroke-width="4" d="M4 9a2 2 0 1 1-4 0 2 2 0 0 1 4 0z" clip-path="url(&quot;#xkczb&quot;)"/></g><g opacity="1"><path fill="none" stroke="#5e636b" stroke-miterlimit="20" stroke-width="4" d="M4 2a2 2 0 1 1-4 0 2 2 0 0 1 4 0z" clip-path="url(&quot;#xkczc&quot;)"/></g></g></g></svg>
