<svg xmlns="http://www.w3.org/2000/svg" width="37" height="12" viewBox="0 0 37 12"><g><g opacity="1"><path fill="#1a1f71" d="M10.952.212h3.153L9.24 11.816H6.068l-2.393-9.26c-.145-.57-.272-.78-.713-1.02C2.24 1.143 1.049.776 0 .55L.071.212H5.18c.65 0 1.236.433 1.385 1.182L7.828 8.11 10.952.212m4.441 0h3l-2.481 11.604H12.91L15.393.212m17.21 3.135l-1.58 4.357h2.49l-.91-4.357m-.44-3.135h2.563l2.423 11.604h-2.777l-.363-1.733h-3.85l-.627 1.733h-3.15l4.503-10.753a1.368 1.368 0 0 1 1.278-.851m-12.95 3.623C19.229 1.577 21.316 0 24.283 0c1.157 0 2.087.252 2.81.515l-.528 2.46c-1.344-.619-2.53-.576-2.96-.519-.867.113-1.263.556-1.273.97-.03 1.37 4.218 1.54 4.206 4.601-.011 2.413-2.074 3.97-5.226 3.97-1.343-.013-2.638-.294-3.338-.617l.544-2.542c.697.326 1.574.757 3.082.733.864-.013 1.788-.357 1.797-1.135.004-.51-.388-.874-1.557-1.443-1.138-.554-2.649-1.487-2.627-3.158"/></g></g></svg>