<svg xmlns="http://www.w3.org/2000/svg" width="18" height="18" viewBox="0 0 18 18"><defs><clipPath id="nk1ca"><path fill="#fff" d="M4 0h10v8c0 2.5-2.5 5-5 5s-5-2.5-5-5z"/></clipPath></defs><g><g><g/><g><path fill="none" stroke="#07c" stroke-miterlimit="20" stroke-width="4" d="M4 0v0h10v8c0 2.5-2.5 5-5 5v0c-2.5 0-5-2.5-5-5z" clip-path="url(&quot;#nk1ca&quot;)"/></g><g><path fill="none" stroke="#07c" stroke-miterlimit="20" stroke-width="2" d="M12 3v0h5v2.925c0 1.7-1.379 3.079-3.079 3.079H12v0"/></g><g><path fill="none" stroke="#07c" stroke-miterlimit="20" stroke-width="2" d="M6 3v0H1v2.925c0 1.7 1.378 3.079 3.078 3.079H6v0"/></g><g><path fill="none" stroke="#07c" stroke-miterlimit="20" stroke-width="2" d="M9 17v-5"/></g><g><path fill="none" stroke="#07c" stroke-miterlimit="20" stroke-width="2" d="M5 17h8"/></g></g></g></svg>