<svg xmlns="http://www.w3.org/2000/svg" width="20" height="18" viewBox="0 0 20 18"><defs><clipPath id="slnaa"><path fill="#fff" d="M16 0H4a4 4 0 0 0-4 4v14l5-4h11a4 4 0 0 0 4-4V4a4 4 0 0 0-4-4z"/></clipPath><clipPath id="slnab"><path fill="#fff" d="M9 7a1 1 0 1 1 2 0 1 1 0 0 1-2 0z"/></clipPath><clipPath id="slnac"><path fill="#fff" d="M5 7a1 1 0 1 1 2 0 1 1 0 0 1-2 0z"/></clipPath><clipPath id="slnad"><path fill="#fff" d="M13 7a1 1 0 1 1 2 0 1 1 0 0 1-2 0z"/></clipPath></defs><g><g><g/><g><path fill="none" stroke="#07c" stroke-miterlimit="20" stroke-width="4" d="M16 0H4a4 4 0 0 0-4 4v14l5-4v0h11a4 4 0 0 0 4-4V4a4 4 0 0 0-4-4z" clip-path="url(&quot;#slnaa&quot;)"/></g><g><path fill="none" stroke="#07c" stroke-miterlimit="20" stroke-width="4" d="M9 7a1 1 0 1 1 2 0 1 1 0 0 1-2 0z" clip-path="url(&quot;#slnab&quot;)"/></g><g><path fill="none" stroke="#07c" stroke-miterlimit="20" stroke-width="4" d="M5 7a1 1 0 1 1 2 0 1 1 0 0 1-2 0z" clip-path="url(&quot;#slnac&quot;)"/></g><g><path fill="none" stroke="#07c" stroke-miterlimit="20" stroke-width="4" d="M13 7a1 1 0 1 1 2 0 1 1 0 0 1-2 0z" clip-path="url(&quot;#slnad&quot;)"/></g></g></g></svg>