<svg xmlns="http://www.w3.org/2000/svg" width="18" height="16" viewBox="0 0 18 16"><defs><clipPath id="1ejta"><path fill="#fff" d="M3 4a4 4 0 1 1 8 0 4 4 0 0 1-8 0z"/></clipPath><clipPath id="1ejtb"><path fill="#fff" d="M12 7a3 3 0 1 1 6 0 3 3 0 0 1-6 0z"/></clipPath></defs><g><g><g/><g><path fill="none" stroke="#000a19" stroke-miterlimit="20" stroke-width="4" d="M3 4a4 4 0 1 1 8 0 4 4 0 0 1-8 0z" clip-path="url(&quot;#1ejta&quot;)"/></g><g><path fill="none" stroke="#000a19" stroke-miterlimit="20" stroke-width="4" d="M12 7a3 3 0 1 1 6 0 3 3 0 0 1-6 0z" clip-path="url(&quot;#1ejtb&quot;)"/></g><g><path fill="none" stroke="#000a19" stroke-miterlimit="20" stroke-width="2" d="M7 10v0H5c-2.2 0-4 1.8-4 4v2"/></g><g><path fill="none" stroke="#000a19" stroke-miterlimit="20" stroke-width="2" d="M14 12v0h-1.333A2.675 2.675 0 0 0 10 14.667V16"/></g></g></g></svg>
